<svg height="400pt" viewBox="100 0 400 400" width="400pt" xmlns="http://www.w3.org/2000/svg"><path fill="#FFFFFF" d="m512 235c0-17.488281-10.035156-32.671875-24.644531-40.113281 2.96875-6 4.644531-12.75 4.644531-19.886719 0-24.8125-20.1875-45-45-45h-145v-75c0-30.328125-24.671875-55-55-55h-30c-8.285156 0-15 6.714844-15 15v53.324219c0 13.195312-5.136719 25.601562-14.46875 34.929687l-26.746094 26.746094h-145.785156c-8.285156 0-15 6.714844-15 15v240c0 8.285156 6.714844 15 15 15h152c8.285156 0 15-6.714844 15-15v-5.269531c14.835938 12.625 34.039062 20.269531 55 20.269531h180c24.8125 0 45-20.1875 45-45 0-7.136719-1.675781-13.886719-4.644531-19.886719 14.609375-7.441406 24.644531-22.625 24.644531-40.113281 0-5.855469-1.136719-11.449219-3.179688-16.585938 19.09375-5.203124 33.179688-22.691406 33.179688-43.414062zm-360 135h-122v-210h122zm315-120h-100c-8.285156 0-15 6.714844-15 15s6.714844 15 15 15h70c8.269531 0 15 6.730469 15 15s-6.730469 15-15 15h-70c-8.285156 0-15 6.714844-15 15s6.714844 15 15 15h50c8.269531 0 15 6.730469 15 15s-6.730469 15-15 15h-180c-30.328125 0-55-24.671875-55-55v-163.785156l26.746094-26.746094c14.996094-14.996094 23.253906-34.933594 23.253906-56.144531v-38.324219h15c13.785156 0 25 11.214844 25 25v90c0 8.285156 6.714844 15 15 15h160c8.269531 0 15 6.730469 15 15s-6.730469 15-15 15h-80c-8.285156 0-15 6.714844-15 15s6.714844 15 15 15h100c8.269531 0 15 6.730469 15 15s-6.730469 15-15 15zm0 0"/></svg>